<svg xmlns="http://www.w3.org/2000/svg" version="1.1" viewBox="0 0 1000 1000">
  <defs/>
  <path fill="#039" d="M8,195.25 C178.83,110.03 349.03,140.83 521.26,167.28 C676.47,191.12 833.42,211.85 992,132.75 L992,804.75 C821.17,889.97 650.97,859.17 478.74,832.72 C323.53,808.88 166.58,788.15 8,867.25 L8,195.25"/>
  <path fill="#fc0" d="M500,238.67 L488.74,272.43 L506.07,280.88 L500,238.67"/>
  <path fill="#fc0" d="M500,238.67 L511.26,275.92 L493.93,279 L500,238.67"/>
  <path fill="#fc0" d="M534.66,269.79 L498.22,264.19 L498.22,282.85 L534.66,269.79"/>
  <path fill="#fc0" d="M534.66,269.79 L505.18,287.21 L494.47,270.45 L534.66,269.79"/>
  <path fill="#fc0" d="M521.42,309.51 L510.16,272.27 L492.83,275.36 L521.42,309.51"/>
  <path fill="#fc0" d="M521.42,309.51 L491.94,283.01 L502.65,269.57 L521.42,309.51"/>
  <path fill="#fc0" d="M465.34,259.13 L501.78,264.74 L501.78,283.41 L465.34,259.13"/>
  <path fill="#fc0" d="M465.34,259.13 L494.82,285.61 L505.53,272.16 L465.34,259.13"/>
  <path fill="#fc0" d="M478.58,302.9 L489.84,269.13 L507.17,277.58 L478.58,302.9"/>
  <path fill="#fc0" d="M478.58,302.9 L508.06,285.51 L497.35,268.75 L478.58,302.9"/>
  <path fill="#fc0" d="M500,686.67 L488.74,720.43 L506.07,728.88 L500,686.67"/>
  <path fill="#fc0" d="M500,686.67 L511.26,723.92 L493.93,727 L500,686.67"/>
  <path fill="#fc0" d="M534.66,717.79 L498.22,712.19 L498.22,730.85 L534.66,717.79"/>
  <path fill="#fc0" d="M534.66,717.79 L505.18,735.21 L494.47,718.45 L534.66,717.79"/>
  <path fill="#fc0" d="M521.42,757.51 L510.16,720.27 L492.83,723.36 L521.42,757.51"/>
  <path fill="#fc0" d="M521.42,757.51 L491.94,731.01 L502.65,717.57 L521.42,757.51"/>
  <path fill="#fc0" d="M465.34,707.13 L501.78,712.74 L501.78,731.41 L465.34,707.13"/>
  <path fill="#fc0" d="M465.34,707.13 L494.82,733.61 L505.53,720.16 L465.34,707.13"/>
  <path fill="#fc0" d="M478.58,750.9 L489.84,717.13 L507.17,725.58 L478.58,750.9"/>
  <path fill="#fc0" d="M478.58,750.9 L508.06,733.51 L497.35,716.75 L478.58,750.9"/>
  <!-- truncated: rest of stars -->
</svg>
